<svg xmlns="http://www.w3.org/2000/svg"> 

   <symbol  width="40px" height="40px" fill="#4f337e" id="open-btn" viewBox="0 0 56 56">
    	<path d="M28,0C12.561,0,0,12.561,0,28s12.561,28,28,28s28-12.561,28-28S43.439,0,28,0z M40,41H16c-1.104,0-2-0.896-2-2s0.896-2,2-2
	      h24c1.104,0,2,0.896,2,2S41.104,41,40,41z M40,30H16c-1.104,0-2-0.896-2-2s0.896-2,2-2h24c1.104,0,2,0.896,2,2S41.104,30,40,30z
	      M40,19H16c-1.104,0-2-0.896-2-2s0.896-2,2-2h24c1.104,0,2,0.896,2,2S41.104,19,40,19z"/>
   </symbol>

   <symbol  width="40px" height="40px" fill="#4f337e" id="close-btn" viewBox="0 0 51.976 51.976">
    	<path d="M44.373,7.603c-10.137-10.137-26.632-10.138-36.77,0c-10.138,10.138-10.137,26.632,0,36.77s26.632,10.138,36.77,0
		   C54.51,34.235,54.51,17.74,44.373,7.603z M36.241,36.241c-0.781,0.781-2.047,0.781-2.828,0l-7.425-7.425l-7.778,7.778
		   c-0.781,0.781-2.047,0.781-2.828,0c-0.781-0.781-0.781-2.047,0-2.828l7.778-7.778l-7.425-7.425c-0.781-0.781-0.781-2.048,0-2.828
		   c0.781-0.781,2.047-0.781,2.828,0l7.425,7.425l7.071-7.071c0.781-0.781,2.047-0.781,2.828,0c0.781,0.781,0.781,2.047,0,2.828
		   l-7.071,7.071l7.425,7.425C37.022,34.194,37.022,35.46,36.241,36.241z"/>
   </symbol>

   <symbol width="30px" height="30px" fill="#fff"  id="phone"  viewBox="0 0 64 64">
      <circle class="st0" cx="32" cy="32" r="32" style="fill:#fff"/>
      <path class="st2" d="M29,25.3c-0.4-4.8-5.4-7.1-5.6-7.2C23.1,18,22.9,18,22.7,18c-5.8,1-6.6,4.3-6.7,4.5c0,0.2,0,0.4,0,0.6
		   c6.9,21.4,21.2,25.3,25.9,26.6c0.4,0.1,0.7,0.2,0.9,0.3c0.1,0,0.2,0.1,0.3,0.1c0.2,0,0.3,0,0.5-0.1c0.1-0.1,3.5-1.7,4.4-6.9
			c0-0.2,0-0.5-0.1-0.7c-0.1-0.1-1.9-3.5-6.8-4.7c-0.3-0.1-0.7,0-1,0.2c-1.6,1.3-3.7,2.7-4.6,2.9c-6.2-3-9.7-8.9-9.8-10
			c-0.1-0.6,1.3-2.8,3-4.6C28.9,26,29,25.6,29,25.3z" style="fill:#4f337e"/>
      <path class="st3" d="M29,23.3c-0.4-4.8-5.4-7.1-5.6-7.2C23.1,16,22.9,16,22.7,16c-5.8,1-6.6,4.3-6.7,4.5c0,0.2,0,0.4,0,0.6
			c6.9,21.4,21.2,25.3,25.9,26.6c0.4,0.1,0.7,0.2,0.9,0.3c0.1,0,0.2,0.1,0.3,0.1c0.2,0,0.3,0,0.5-0.1c0.1-0.1,3.5-1.7,4.4-6.9
		   c0-0.2,0-0.5-0.1-0.7c-0.1-0.1-1.9-3.5-6.8-4.7c-0.3-0.1-0.7,0-1,0.2c-1.6,1.3-3.7,2.7-4.6,2.9c-6.2-3-9.7-8.9-9.8-10
			c-0.1-0.6,1.3-2.8,3-4.6C28.9,24,29,23.6,29,23.3z" style="fill:#4f337e"/>
   </symbol>
        
   <symbol width="30px" height="30px" fill="#4f337e"  id="instagram"  viewBox="0 0 1024 1024" >
      <circle cx="512" cy="512" r="512" style="fill:#fff"/>
      <path d="M512 256c-69.5 0-78.2.3-105.5 1.5-27.3 1.3-45.8 5.6-62.1 11.9-16.8 6.5-31.1 15.3-45.4 29.5s-23 28.5-29.5 
         45.4c-6.3 16.3-10.6 34.9-11.9 62.1-1.3 27.3-1.5 36-1.5 105.5s.3 78.2 1.5 105.5c1.3 27.2 5.6 45.8 11.9 62.1 6.5 16.8 
         15.3 31.1 29.5 45.4 14.2 14.2 28.5 23 45.4 29.5 16.3 6.3 34.9 10.6 62.1 11.9 27.3 1.3 36 1.5 105.5 1.5s78.2-.3 
         105.5-1.5c27.2-1.3 45.8-5.6 62.1-11.9 16.8-6.5 31.1-15.3 45.4-29.5 14.2-14.2 23-28.5 29.5-45.4 6.3-16.3 10.6-34.9 11.9-62.1 1.3-27.3 1.5-36 
         1.5-105.5s-.3-78.2-1.5-105.5c-1.3-27.2-5.6-45.8-11.9-62.1-6.5-16.8-15.3-31.1-29.5-45.4-14.2-14.2-28.5-23-45.4-29.5-16.3-6.3-34.9-10.6-62.1-11.9-27.3-1.2-36-1.5-105.5-1.5zm0 
         46.1c68.3 0 76.5.3 103.5 1.5 25 1.2 38.5 5.3 47.5 8.9 12 4.6 20.5 10.2 29.5 19.1 8.9 9 14.5 17.5 19.1 29.5 3.5 9 7.7 22.5 8.8 47.5 1.2 27 1.5 35.1 
         1.5 103.5s-.3 76.5-1.6 103.5c-1.3 25-5.5 38.5-9 47.5-4.8 12-10.2 20.5-19.2 29.5-8.9 8.9-17.6 14.5-29.4 19.1-9 3.5-22.7 7.7-47.7 8.8-27.2 1.2-35.2 
         1.5-103.7 1.5s-76.5-.3-103.7-1.6c-25-1.3-38.7-5.5-47.7-9-12.1-4.8-20.5-10.2-29.4-19.2-9-8.9-14.7-17.6-19.2-29.4-3.5-9-7.7-22.7-9-47.7-1-26.9-1.3-35.2-1.3-103.3 
         0-68.2.3-76.5 1.3-103.7 1.3-25 5.4-38.7 9-47.7 4.5-12.2 10.2-20.5 19.2-29.5 8.9-8.9 17.3-14.7 29.4-19.2 9-3.5 22.4-7.7 47.4-9 27.2-1 35.2-1.3 103.7-1.3l1 .7zm0 
         78.4c-72.6 0-131.5 58.9-131.5 131.5S439.4 643.5 512 643.5 643.5 584.6 643.5 512 584.6 380.5 512 380.5zm0 216.8c-47.1 0-85.3-38.2-85.3-85.3s38.2-85.3 85.3-85.3 
         85.3 38.2 85.3 85.3-38.2 85.3-85.3 85.3zm167.4-221.9c0 17-13.8 30.7-30.7 30.7-17 0-30.7-13.8-30.7-30.7s13.8-30.7 30.7-30.7c16.9-.1 30.7 13.7 30.7 30.7z" />
   </symbol>

   <symbol  width="30px" height="30px" fill="#4f337e" id="vk" viewBox="0 0 1024 1024">
    	<circle cx="512" cy="512" r="512" style="fill:#fff"/>
      <path d="M585.83 271.5H438.17c-134.76 0-166.67 31.91-166.67 166.67v147.66c0 134.76 31.91 166.67 166.67 166.67h147.66c134.76 0 166.67-31.91 
         166.67-166.67V438.17c0-134.76-32.25-166.67-166.67-166.67zm74 343.18h-35c-13.24 0-17.31-10.52-41.07-34.62-20.71-20-29.87-22.74-35-22.74-7.13 
         0-9.17 2-9.17 11.88v31.57c0 8.49-2.72 13.58-25.12 13.58-37 0-78.07-22.4-106.93-64.16-43.45-61.1-55.33-106.93-55.33-116.43 0-5.09 2-9.84 
         11.88-9.84h35c8.83 0 12.22 4.07 15.61 13.58 17.31 49.9 46.17 93.69 58 93.69 4.41 0 6.45-2 6.45-13.24v-51.6c-1.36-23.76-13.92-25.8-13.92-34.28 
         0-4.07 3.39-8.15 8.83-8.15h55c7.47 0 10.18 4.07 10.18 12.9v69.58c0 7.47 3.39 10.18 5.43 10.18 4.41 0 8.15-2.72 16.29-10.86 25.12-28.17 
         43.11-71.62 43.11-71.62 2.38-5.09 6.45-9.84 15.28-9.84h35c10.52 0 12.9 5.43 10.52 12.9-4.41 20.37-47.18 80.79-47.18 80.79-3.73 6.11-5.09 
         8.83 0 15.61 3.73 5.09 16 15.61 24.1 25.12 14.94 17 26.48 31.23 29.53 41.07 3.45 9.84-1.65 14.93-11.49 14.93z" style="fill:#4f337e"/>
   </symbol>

   <symbol  width="30px" height="30px" fill="#4f337e" id="facebook" viewBox="0 0 1024 1024">
    	<circle cx="512" cy="512" r="512" style="fill:#fff"/>
      <path d="M552 766.4V587.6h59.7l11.4-74h-71v-48c0-20.2 9.9-40 41.7-40H626v-63s-29.3-5-57.3-5c-58.5 0-96.7 35.4-96.7 
         99.6v56.4h-65v74h65v178.9c-122.4-19.2-216-125.1-216-252.9 0-141.4 114.6-256 256-256s256 114.6 256 256c0 127.7-93.6 233.6-216 252.8z"/>
   </symbol>

   <symbol  width="30px" height="30px" fill="#4f337e" id="pinterest" viewBox="0 0 1024 1024">
    	<circle cx="512" cy="512" r="512" style="fill:#fff"/>
      <path d="M512.21 255.58C370.71 255.58 256 370.29 256 511.79c0 108.6 67.48 201.38 162.79 238.71-2.32-20.24-4.22-51.45.84-73.59 4.64-20 29.94-127.37 
         29.94-127.37s-7.59-15.39-7.59-38c0-35.64 20.67-62.21 46.39-62.21 21.93 0 32.47 16.45 32.47 36.06 0 21.93-13.92 54.83-21.3 85.4-6.12 25.52 12.86 46.39 
         38 46.39 45.55 0 80.55-48.08 80.55-117.25 0-61.36-44.07-104.17-107.12-104.17-73 0-115.77 54.62-115.77 111.13 0 21.93 8.43 45.55 19 58.41a7.63 7.63 0 0 1 
         1.69 7.38c-1.9 8-6.33 25.52-7.17 29.1-1.05 4.64-3.8 5.69-8.65 3.37-32.05-15-52.09-61.57-52.09-99.32 0-80.76 58.62-155 169.33-155 88.78 0 157.94 63.26 157.94 148 0 
         88.36-55.67 159.42-132.85 159.42-25.94 0-50.4-13.5-58.62-29.52l-16 60.94C462 712.12 446.42 740 435.87 757a257.34 257.34 0 0 0 75.91 11.39C653.28 768.42 768 653.71 
         768 512.21c.42-141.92-114.29-256.63-255.79-256.63z"/>
   </symbol>

   <symbol  width="50px" height="50px" fill="#fff" id="gears" viewBox="0 0 95.348 95.347">
    	<path d="M56.527,60.122l-4.662-1.033c-0.047-3.138-0.719-6.168-1.996-9.007l3.606-2.92c0.858-0.695,0.99-1.954,0.296-2.813
			l-4.521-5.584c-0.334-0.413-0.818-0.675-1.346-0.731c-0.525-0.057-1.056,0.102-1.468,0.435l-3.511,2.846l0,0
			c-2.486-1.907-5.277-3.259-8.297-4.019v-4.458c0-1.104-0.896-2-2-2h-7.183c-1.104,0-2,0.896-2,2v4.461
			c-3.08,0.777-5.922,2.171-8.447,4.144l-3.545-2.82c-0.415-0.33-0.94-0.479-1.472-0.422c-0.527,0.06-1.009,0.327-1.339,0.743
			l-4.472,5.623c-0.688,0.864-0.544,2.123,0.32,2.81l3.642,2.896l0,0c-1.25,2.848-1.895,5.879-1.916,9.01l-4.666,1.078
			c-1.076,0.25-1.747,1.322-1.499,2.398l1.616,7.001c0.249,1.077,1.325,1.747,2.399,1.499l4.813-1.111l0,0
			c1.429,2.682,3.344,5.018,5.691,6.943l-2.17,4.55c-0.476,0.997-0.054,2.19,0.943,2.666l6.484,3.095
			c0.271,0.129,0.566,0.194,0.861,0.194c0.226,0,0.451-0.038,0.668-0.114c0.5-0.178,0.909-0.545,1.138-1.024l2.198-4.611
			c2.923,0.563,5.966,0.554,8.879-0.032l2.236,4.584c0.484,0.994,1.685,1.403,2.675,0.922l6.456-3.148
			c0.992-0.484,1.405-1.682,0.921-2.674l-2.206-4.524c2.335-1.946,4.231-4.301,5.639-6.999l4.812,1.067
			c1.076,0.237,2.146-0.441,2.385-1.521l1.557-7.014c0.114-0.518,0.02-1.061-0.267-1.508C57.495,60.552,57.045,60.236,56.527,60.122
			z M37.856,59.435c0,4.859-3.953,8.812-8.813,8.812c-4.858,0-8.811-3.953-8.811-8.812s3.952-8.812,8.811-8.812
			C33.903,50.624,37.856,54.576,37.856,59.435z"/>
		<path d="M61.943,42.999c0.746,0,1.463-0.42,1.807-1.139l1.054-2.208c1.826,0.353,3.735,0.345,5.551-0.021l1.07,2.195
			c0.483,0.992,1.682,1.405,2.675,0.921l2.691-1.313c0.477-0.233,0.842-0.646,1.015-1.147c0.172-0.501,0.139-1.051-0.095-1.528
			l-1.053-2.155c1.458-1.214,2.646-2.686,3.527-4.377l2.278,0.504c1.074,0.238,2.146-0.442,2.386-1.52l0.646-2.923
			c0.238-1.078-0.441-2.146-1.521-2.385l-2.184-0.484c-0.028-1.962-0.449-3.857-1.248-5.632l1.673-1.355
			c0.412-0.334,0.675-0.818,0.729-1.345c0.056-0.527-0.102-1.056-0.436-1.468l-1.884-2.327c-0.697-0.859-1.957-0.99-2.813-0.295
			l-1.614,1.307c-1.554-1.193-3.299-2.038-5.188-2.513V9.751c0-1.104-0.896-2-2-2h-2.994c-1.104,0-2,0.896-2,2v2.04
			c-1.927,0.486-3.703,1.358-5.28,2.592l-1.634-1.298c-0.862-0.687-2.12-0.543-2.81,0.32L52.43,15.75
			c-0.33,0.416-0.481,0.945-0.422,1.472c0.061,0.527,0.327,1.009,0.743,1.339l1.689,1.345c-0.78,1.779-1.184,3.676-1.197,5.636
			l-2.188,0.505c-0.518,0.119-0.965,0.439-1.246,0.889c-0.281,0.45-0.372,0.993-0.252,1.51l0.675,2.918
			c0.249,1.076,1.323,1.747,2.398,1.498l2.279-0.527c0.893,1.676,2.09,3.137,3.56,4.343l-1.035,2.17
			c-0.229,0.479-0.257,1.028-0.08,1.528c0.178,0.5,0.546,0.91,1.024,1.138l2.702,1.289C61.361,42.935,61.654,42.999,61.943,42.999z
			 M62.01,25.635c0-3.039,2.473-5.51,5.512-5.51c3.038,0,5.51,2.472,5.51,5.51c0,3.039-2.472,5.511-5.51,5.511
			C64.482,31.146,62.01,28.674,62.01,25.635z"/>
		<path d="M93.782,64.115l-2.182-0.483c-0.028-1.961-0.449-3.856-1.25-5.632l1.675-1.355c0.412-0.334,0.675-0.818,0.73-1.346
			s-0.103-1.057-0.437-1.468l-1.885-2.327c-0.695-0.859-1.956-0.99-2.813-0.295l-1.613,1.307c-1.556-1.193-3.3-2.038-5.188-2.513
			v-2.039c0-1.104-0.896-2-2-2h-2.994c-1.104,0-2,0.896-2,2v2.041c-1.929,0.485-3.706,1.358-5.281,2.592h-0.001l-1.632-1.298
			c-0.415-0.331-0.938-0.482-1.472-0.422c-0.527,0.061-1.009,0.326-1.339,0.742l-1.863,2.343c-0.688,0.864-0.544,2.123,0.32,2.812
			l1.691,1.344c-0.782,1.785-1.187,3.681-1.199,5.637l-2.188,0.505c-0.517,0.12-0.965,0.438-1.246,0.89
			c-0.28,0.449-0.372,0.992-0.252,1.51l0.675,2.918c0.249,1.076,1.327,1.744,2.397,1.498l2.281-0.526
			c0.893,1.677,2.09,3.138,3.558,4.343h0.001l-1.035,2.168c-0.229,0.479-0.258,1.029-0.081,1.529c0.179,0.5,0.546,0.909,1.024,1.138
			l2.702,1.289c0.277,0.132,0.571,0.195,0.859,0.195c0.746,0,1.464-0.42,1.807-1.14l1.054-2.207
			c1.828,0.353,3.739,0.347,5.552-0.021l1.071,2.193c0.484,0.992,1.682,1.406,2.675,0.922l2.69-1.312
			c0.477-0.232,0.842-0.645,1.014-1.146c0.173-0.501,0.141-1.051-0.093-1.528l-1.052-2.155c1.459-1.215,2.645-2.688,3.524-4.377
			l2.278,0.506c0.52,0.115,1.061,0.02,1.508-0.267c0.447-0.285,0.763-0.735,0.878-1.254l0.647-2.923
			C95.542,65.422,94.861,64.355,93.782,64.115z M82.838,63.848c0,3.039-2.472,5.511-5.509,5.511c-3.038,0-5.512-2.472-5.512-5.511
			s2.474-5.511,5.512-5.511C80.366,58.338,82.838,60.81,82.838,63.848z"/>
   </symbol>

      <symbol  width="50px" height="50px" fill="#fff" id="3d-building" viewBox="0 0 575.269 575.269">
    	<path d="M545.146,223.108l-89.254-27.43v-66.5c0-3.77-2.143-7.222-5.521-8.886L209.304,1.025c0,0-2.154-1.2-5.092-1.004
		   c-2.925,0.196-5.067,1.812-5.067,1.812L27.259,124.417c-2.607,1.86-4.149,4.872-4.149,8.078V471.14c0,3.623,1.971,6.952,5.141,8.69
		   l171.898,94.199c0,0,1.971,1.102,4.149,1.224c2.167,0.135,4.149-0.648,4.149-0.648l241.055-91.641l96.268-36.61
		   c3.855-1.469,6.39-5.153,6.39-9.277V232.594C552.146,228.236,549.319,224.393,545.146,223.108z M64.652,406.451
		   c0,1.028-0.478,2.008-1.297,2.632c-0.587,0.44-1.273,0.673-1.995,0.673c-0.294,0-0.6-0.036-0.894-0.122l-19.511-5.41
		   c-1.42-0.392-2.411-1.701-2.411-3.194v-49.964c0-0.931,0.392-1.812,1.089-2.448c0.686-0.624,1.616-0.93,2.534-0.832l19.511,1.897
		   c1.689,0.171,2.974,1.591,2.974,3.292V406.451z M64.652,299.486c0,1.726-1.31,3.157-3.036,3.305l-19.51,1.604
		   c-0.086,0.012-0.184,0.012-0.257,0.012c-0.832,0-1.64-0.306-2.252-0.869c-0.686-0.624-1.065-1.505-1.065-2.423v-49.977
		   c0-1.506,1.016-2.815,2.46-3.195l19.511-5.128c0.992-0.257,2.056-0.049,2.864,0.575c0.808,0.636,1.273,1.604,1.273,2.619v53.478
		   H64.652z M64.652,192.52c0,1.298-0.759,2.485-1.958,3.023l-19.51,8.642c-0.429,0.184-0.881,0.269-1.334,0.269
		   c-0.636,0-1.273-0.184-1.799-0.539c-0.942-0.6-1.505-1.652-1.505-2.766v-49.976c0-1.138,0.587-2.203,1.555-2.803l19.498-12.142
		   c1.028-0.649,2.301-0.673,3.354-0.086c1.04,0.576,1.689,1.689,1.689,2.876v53.501H64.652z M113.245,419.952
		   c0,1.04-0.478,2.008-1.297,2.644c-0.575,0.44-1.297,0.674-1.995,0.674c-0.294,0-0.6-0.037-0.881-0.123l-26.145-7.271
		   c-1.432-0.392-2.424-1.701-2.424-3.183v-57.527c0-0.931,0.392-1.824,1.089-2.448c0.698-0.637,1.616-0.931,2.546-0.845l26.145,2.559
		   c1.689,0.171,2.974,1.591,2.974,3.28v62.24H113.245z M113.245,295.472c0,1.726-1.31,3.157-3.023,3.305l-26.145,2.154
		   c-0.098,0.012-0.184,0.012-0.269,0.012c-0.82,0-1.628-0.306-2.24-0.869c-0.685-0.624-1.077-1.505-1.077-2.423v-57.529
		   c0-1.505,1.016-2.815,2.473-3.207l26.132-6.867c0.992-0.257,2.056-0.049,2.864,0.588c0.808,0.624,1.273,1.591,1.273,2.619v62.217
		   H113.245z M113.245,170.99c0,1.31-0.759,2.485-1.958,3.023L85.142,185.58c-0.428,0.196-0.881,0.282-1.334,0.282
		   c-0.637,0-1.261-0.184-1.799-0.539c-0.93-0.612-1.506-1.653-1.506-2.779v-57.528c0-1.126,0.6-2.191,1.567-2.791l26.132-16.292
		   c1.028-0.637,2.313-0.673,3.354-0.086c1.053,0.587,1.701,1.689,1.701,2.889v62.252H113.245z M180.895,438.729
		   c0,0.979-0.379,1.896-1.077,2.595c-1.199,1.212-2.839,1.224-3.378,1.224c-0.012,0-0.012,0-0.012,0
	   	c-6.524,0-31.812-9.094-36.806-10.93c-1.298-0.478-2.179-1.727-2.179-3.109v-67.785c0-0.931,0.392-1.823,1.089-2.448
	   	c0.685-0.636,1.615-0.93,2.534-0.845l36.842,3.599c1.701,0.172,2.986,1.592,2.986,3.306
		   C180.895,365.019,180.871,435.558,180.895,438.729z M180.895,289.89c0,1.726-1.322,3.158-3.036,3.305l-36.842,3.036
		   c-0.085,0.012-0.184,0.012-0.269,0.012c-0.833,0-1.64-0.306-2.252-0.869c-0.685-0.636-1.065-1.505-1.065-2.436v-67.786
		   c0-1.505,1.016-2.815,2.46-3.207l36.842-9.67c0.979-0.257,2.044-0.049,2.852,0.576c0.808,0.636,1.297,1.603,1.297,2.619v74.419
		   H180.895z M180.895,141.039c0,1.31-0.783,2.485-1.971,3.023l-36.83,16.304c-0.428,0.196-0.881,0.281-1.334,0.281
		   c-0.637,0-1.261-0.184-1.812-0.538c-0.942-0.612-1.505-1.653-1.505-2.779V89.557c0-1.138,0.587-2.203,1.554-2.803l36.842-22.95
		   c1.016-0.636,2.289-0.673,3.342-0.085s1.713,1.701,1.713,2.889V141.039z M327.31,103.927c0-1.114,0.563-2.154,1.494-2.767
		   c0.93-0.612,2.104-0.71,3.133-0.269l39.303,17.001c1.225,0.526,1.995,1.726,1.995,3.035v58.715c0,1.053-0.489,2.032-1.334,2.656
		   c-0.575,0.428-1.273,0.661-1.971,0.661c-0.318,0-0.648-0.049-0.967-0.159l-39.315-12.069c-1.383-0.428-2.338-1.713-2.338-3.17
		   V103.927L327.31,103.927z M327.31,231.199c0-0.979,0.441-1.91,1.2-2.546c0.759-0.625,1.75-0.881,2.717-0.71l39.303,7.16
		   c1.579,0.282,2.718,1.665,2.718,3.268v59.255c0,0.905-0.38,1.786-1.053,2.411c-0.612,0.575-1.42,0.881-2.265,0.881
		   c-0.073,0-0.159,0-0.221,0l-39.314-2.791c-1.726-0.134-3.072-1.566-3.072-3.305v-63.624H327.31z M224.959,59.692
		   c0-1.114,0.563-2.154,1.493-2.767c0.931-0.612,2.105-0.722,3.134-0.281l55.839,24.149c1.224,0.526,1.995,1.714,1.995,3.036v69.438
		   c0,1.041-0.49,2.032-1.334,2.656c-0.576,0.429-1.273,0.649-1.958,0.649c-0.331,0-0.661-0.049-0.979-0.147l-55.839-17.16
		   c-1.383-0.417-2.338-1.714-2.338-3.158V59.692H224.959z M224.959,288.96v-76.427c0-0.979,0.441-1.91,1.2-2.534
		   c0.759-0.637,1.75-0.894,2.717-0.722l55.839,10.184c1.579,0.281,2.717,1.652,2.717,3.256v69.438c0,0.905-0.367,1.787-1.041,2.399
		   c-0.612,0.587-1.42,0.894-2.252,0.894c-0.074,0-0.135,0-0.196,0l-55.851-3.207C226.33,292.167,224.959,290.722,224.959,288.96z
		   M333.932,517.542c0,1.37-0.845,2.595-2.142,3.084l-73.098,27.797c-0.367,0.147-0.771,0.221-1.175,0.221
		   c-0.661,0-1.31-0.196-1.873-0.588c-0.894-0.611-1.42-1.628-1.42-2.717V363.403c0-1.738,1.334-3.183,3.072-3.293l73.097-4.944
		   c0.931-0.049,1.812,0.257,2.484,0.881c0.674,0.637,1.053,1.506,1.053,2.411V517.542z M422.011,484.065
		   c0,1.371-0.845,2.595-2.13,3.084l-48.764,18.544c-0.38,0.146-0.783,0.221-1.188,0.221c-0.661,0-1.31-0.208-1.86-0.588
		   c-0.894-0.624-1.433-1.628-1.433-2.718V355.802c0-1.737,1.347-3.182,3.072-3.292l48.765-3.317c0.93-0.049,1.823,0.258,2.484,0.882
		   c0.674,0.636,1.041,1.505,1.041,2.411v131.58H422.011z M436.099,300.673c0,0.906-0.379,1.787-1.04,2.399
		   c-0.624,0.588-1.432,0.906-2.265,0.906c-0.061,0-0.135,0-0.195-0.013l-29.181-1.665c-1.737-0.109-3.108-1.554-3.108-3.316v-54.505
		   c0-0.979,0.428-1.91,1.188-2.534c0.759-0.637,1.75-0.894,2.717-0.722l29.168,5.324c1.579,0.294,2.729,1.652,2.729,3.256v50.87
		   H436.099z M436.099,198.958c0,1.04-0.501,2.032-1.346,2.656c-0.575,0.429-1.273,0.649-1.959,0.649c-0.318,0-0.66-0.049-0.967-0.147
		   l-29.18-8.959c-1.384-0.416-2.326-1.714-2.326-3.158v-54.517c0-1.114,0.551-2.154,1.481-2.767c0.931-0.612,2.105-0.71,3.134-0.281
		   l29.18,12.619c1.212,0.514,1.995,1.714,1.995,3.036v50.87H436.099z M494.398,391.176c0,1.579-1.126,2.938-2.681,3.243
		   l-21.188,4.089c-0.221,0.049-0.416,0.061-0.624,0.061c-0.759,0-1.518-0.257-2.118-0.759c-0.759-0.636-1.199-1.566-1.199-2.546
		   v-46.23c0-1.737,1.347-3.182,3.085-3.305l21.188-1.432c0.942-0.062,1.823,0.257,2.496,0.881c0.674,0.637,1.041,1.506,1.041,2.411
		   V391.176L494.398,391.176z M494.398,304.027c0,0.905-0.367,1.787-1.028,2.398c-0.624,0.575-1.432,0.894-2.276,0.894
		   c-0.073,0-0.135,0-0.196,0l-21.188-1.224c-1.763-0.098-3.121-1.542-3.121-3.305v-46.219c0-0.979,0.429-1.91,1.188-2.534
		   c0.759-0.637,1.75-0.894,2.717-0.722l21.188,3.855c1.579,0.281,2.718,1.652,2.718,3.256V304.027z M530.249,384.272
		   c0,1.579-1.138,2.938-2.692,3.243l-16.952,3.281c-0.209,0.036-0.417,0.061-0.612,0.061c-0.771,0-1.506-0.257-2.105-0.759
		   c-0.771-0.624-1.212-1.555-1.212-2.546v-41.212c0-1.738,1.347-3.183,3.085-3.293l16.939-1.15c0.931-0.061,1.812,0.257,2.485,0.882
		   c0.673,0.624,1.053,1.505,1.053,2.411v39.082H530.249z M530.249,306.083c0,0.906-0.379,1.775-1.04,2.399
		   c-0.624,0.575-1.433,0.894-2.276,0.894c-0.062,0-0.123,0-0.196,0l-16.94-0.979c-1.763-0.098-3.121-1.542-3.121-3.305v-40.686
		   c0-0.967,0.416-1.873,1.139-2.509c0.746-0.625,1.713-0.906,2.656-0.759l16.952,2.57c1.628,0.257,2.815,1.64,2.815,3.28v39.095
		   H530.249z"/>
   </symbol>

      <symbol  width="50px" height="50px" fill="#fff" id="list" viewBox="0 0 353 353">
    	<rect x="33.928" y="124.5" width="53" height="19"/>
			<rect x="33.928" y="294.5" width="53" height="19"/>
			<rect x="33.928" y="39.5" width="53" height="19"/>
			<rect x="33.928" y="209.5" width="53" height="19"/>
			<path d="M68.784,0v23.5h26.144c4.418,0,8,3.582,8,8v35c0,4.418-3.582,8-8,8H68.784v34h26.144c4.418,0,8,3.582,8,8v35
				c0,4.418-3.582,8-8,8H68.784v34h26.144c4.418,0,8,3.582,8,8v35c0,4.418-3.582,8-8,8H68.784v34h26.144c4.418,0,8,3.582,8,8v35
				c0,4.418-3.582,8-8,8H68.784V353h250.288V0H68.784z M147.428,39h116c4.418,0,8,3.582,8,8c0,4.418-3.582,8-8,8h-116
				c-4.419,0-8-3.582-8-8C139.428,42.582,143.009,39,147.428,39z M171.928,138h58c4.419,0,8,3.582,8,8c0,4.418-3.581,8-8,8h-58
				c-4.419,0-8-3.582-8-8C163.928,141.582,167.509,138,171.928,138z M170.928,106c0-4.418,3.581-8,8-8h24c4.419,0,8,3.582,8,8
				c0,4.418-3.581,8-8,8h-24C174.509,114,170.928,110.418,170.928,106z M171.928,258h58c4.419,0,8,3.582,8,8c0,4.418-3.581,8-8,8
				h-58c-4.419,0-8-3.582-8-8C163.928,261.582,167.509,258,171.928,258z M170.928,226c0-4.418,3.581-8,8-8h24c4.419,0,8,3.582,8,8
				c0,4.418-3.581,8-8,8h-24C174.509,234,170.928,230.418,170.928,226z M211.928,194c-4.419,0-8-3.582-8-8c0-4.418,3.581-8,8-8h24
				c4.419,0,8,3.582,8,8c0,4.418-3.581,8-8,8H211.928z M237.928,114c-4.419,0-8-3.582-8-8c0-4.418,3.581-8,8-8h18
				c4.419,0,8,3.582,8,8c0,4.418-3.582,8-8,8H237.928z M128.928,98h18c4.419,0,8,3.582,8,8c0,4.418-3.581,8-8,8h-18
				c-4.419,0-8-3.582-8-8C120.928,101.582,124.509,98,128.928,98z M128.928,138h18c4.419,0,8,3.582,8,8c0,4.418-3.581,8-8,8h-18
				c-4.419,0-8-3.582-8-8C120.928,141.582,124.509,138,128.928,138z M128.928,178h51c4.419,0,8,3.582,8,8c0,4.418-3.581,8-8,8h-51
				c-4.419,0-8-3.582-8-8C120.928,181.582,124.509,178,128.928,178z M128.928,218h18c4.419,0,8,3.582,8,8c0,4.418-3.581,8-8,8h-18
				c-4.419,0-8-3.582-8-8C120.928,221.582,124.509,218,128.928,218z M128.928,258h18c4.419,0,8,3.582,8,8c0,4.418-3.581,8-8,8h-18
				c-4.419,0-8-3.582-8-8C120.928,261.582,124.509,258,128.928,258z M179.928,314h-51c-4.419,0-8-3.582-8-8c0-4.418,3.581-8,8-8h51
				c4.419,0,8,3.582,8,8C187.928,310.418,184.346,314,179.928,314z M235.928,314h-24c-4.419,0-8-3.582-8-8c0-4.418,3.581-8,8-8h24
				c4.419,0,8,3.582,8,8C243.928,310.418,240.346,314,235.928,314z M237.928,234c-4.419,0-8-3.582-8-8c0-4.418,3.581-8,8-8h18
				c4.419,0,8,3.582,8,8c0,4.418-3.582,8-8,8H237.928z M281.928,314h-11c-4.419,0-8-3.582-8-8c0-4.418,3.581-8,8-8h11
				c4.418,0,8,3.582,8,8C289.928,310.418,286.346,314,281.928,314z M281.928,274h-17c-4.419,0-8-3.582-8-8c0-4.418,3.581-8,8-8h17
				c4.418,0,8,3.582,8,8C289.928,270.418,286.346,274,281.928,274z M281.928,194h-11c-4.419,0-8-3.582-8-8c0-4.418,3.581-8,8-8h11
				c4.418,0,8,3.582,8,8C289.928,190.418,286.346,194,281.928,194z M281.928,154h-17c-4.419,0-8-3.582-8-8c0-4.418,3.581-8,8-8h17
				c4.418,0,8,3.582,8,8C289.928,150.418,286.346,154,281.928,154z"/>
   </symbol>

   <symbol  width="50px" height="50px" fill="#fff" id="paint-selection" viewBox="0 0 280.939 280.939">
    	<path d="M271.686,183.26L261,178.83V8.226c0-4.143-3.505-7.448-7.647-7.448H72.593C68.45,0.778,65,4.084,65,8.226v60.552H7.371
	      C3.229,68.778,0,71.737,0,75.88v180.76c0,4.143,3.229,7.139,7.371,7.139h180.76c0.211,0,0.418,0.166,0.625,0.149l5.113,8.789
	      c2.718,4.625,7.664,7.445,12.927,7.445c0.687,0,1.378-0.025,2.071-0.121c6.007-0.836,10.919-5.195,12.448-11.064l10.809-41.483
	      l39.56-16.525c5.596-2.338,9.27-7.814,9.254-13.878C280.923,191.026,277.294,185.569,271.686,183.26z M80,83.778h100v62.027
	      l-39.462-16.375c-1.85-0.762-3.63-1.13-5.548-1.13c-4.257,0-8.341,1.813-11.252,5.167c-4.223,4.864-4.83,12.027-1.565,17.58
	      l18.018,30.731H80V83.778z M246,15.778v156.877l-50-20.196V72.285c0-4.143-2.563-7.507-6.706-7.507H80v-49H246z M15,248.778v-165h50
	      v105.209c0,4.143,3.45,7.791,7.593,7.791h76.415l30.949,52H15z"/>
   </symbol>

   <symbol  width="50px" height="50px" fill="#fff" id="supervision" viewBox="0 0 297 297">
    	<path d="m112.632,185.074l6.88-3.972c2.804-1.619 3.765-5.205 2.146-8.01l-13.036-22.579c-1.086-1.881-3.057-2.933-5.083-2.933-0.995,0-2.003,0.253-2.926,0.787l-6.88,3.972c-0.945,0.545-1.947,0.794-2.923,0.794-3.063,0-5.872-2.449-5.872-5.872v-7.944c0-3.238-2.625-5.864-5.864-5.864h-26.073c-3.238,0-5.864,2.625-5.864,5.864v7.944c0,3.423-2.81,5.872-5.872,5.872-0.976,0-1.978-0.249-2.923-0.794l-6.88-3.972c-0.923-0.533-1.932-0.786-2.926-0.787-2.027,0-3.997,1.052-5.083,2.933l-13.036,22.579c-1.619,2.805-0.658,6.391 2.146,8.01l6.88,3.972c3.909,2.257 3.909,7.899 0,10.156l-6.88,3.972c-2.805,1.619-3.765,5.205-2.146,8.01l13.036,22.579c1.086,1.881 3.057,2.933 5.083,2.933 0.995,0 2.003-0.254 2.926-0.787l6.88-3.972c0.945-0.545 1.947-0.794 2.923-0.794 3.063,0 5.872,2.449 5.872,5.872v7.944c0,3.238 2.625,5.864 5.864,5.864h26.072c3.238,0 5.864-2.625 5.864-5.864v-7.944c0-3.423 2.81-5.872 5.872-5.872 0.976,0 1.978,0.249 2.923,0.794l6.88,3.972c0.923,0.533 1.932,0.787 2.926,0.787 2.027,0 3.997-1.052 5.083-2.933l13.036-22.579c1.619-2.805 0.658-6.391-2.146-8.01l-6.88-3.972c-3.908-2.257-3.908-7.9 0.001-10.156zm-46.594,22.474c-9.608,0-17.396-7.789-17.396-17.396 0-9.608 7.789-17.396 17.396-17.396s17.396,7.789 17.396,17.396c0,9.607-7.789,17.396-17.396,17.396z"/>
      <path d="m108.109,23.659c-3.146-3.144-8.243-3.144-11.389,0-3.145,3.146-3.145,8.244 0,11.389l14.39,14.389c-52.889,2.619-95.701,44.162-100.334,96.506l1.19-2.062c3.406-5.9 9.756-9.565 16.57-9.564 0.144,0 0.287,0.013 0.431,0.017 9.074-37.721 41.965-66.251 81.815-68.729l-14.062,14.061c-3.145,3.145-3.145,8.244 0,11.389 1.573,1.572 3.633,2.358 5.694,2.358s4.122-0.786 5.694-2.358l28.004-28.004c1.51-1.511 2.358-3.559 2.358-5.694 0-2.136-0.848-4.184-2.358-5.694l-28.003-28.004z"/>
      <path d="m209.868,64.857c17.881,0 32.428-14.547 32.428-32.428 0-17.882-14.547-32.429-32.428-32.429-17.881,0-32.428,14.547-32.428,32.428 0,17.881 14.547,32.429 32.428,32.429z"/>
      <path d="m273.039,152.276v-44.58c0-12.34-7.93-23.283-19.657-27.124l-.054-.018-17.152-2.84c-1.46-0.449-3.02,0.324-3.545,1.764l-19.462,53.399c-1.123,3.081-5.48,3.081-6.602,0l-19.462-53.399c-0.424-1.163-1.522-1.892-2.698-1.892-0.279,0-17.999,2.964-17.999,2.964-11.823,3.94-19.723,14.9-19.723,27.294v44.432c0,6.659 5.398,12.056 12.056,12.056h102.241c6.66-2.84217e-14 12.057-5.398 12.057-12.056z"/>
      <path d="m287.37,162.933c-0.673,9.215-8.233,14.858-17.45,15.526-7.062,40.425-41.207,71.64-82.979,74.237l14.061-14.061c3.145-3.146 3.145-8.244 0-11.389-3.146-3.144-8.243-3.144-11.389,0l-28.003,28.004c-3.145,3.146-3.145,8.244 0,11.389l28.003,28.003c1.573,1.572 3.633,2.358 5.694,2.358s4.122-0.786 5.694-2.358c3.145-3.145 3.145-8.244 0-11.389l-14.389-14.389c56.028-2.774 100.758-49.227 100.758-105.931z"/>
      <path d="m216.936,77.105c-0.747-0.814-1.84-1.224-2.946-1.224h-8.245c-1.105,0-2.198,0.41-2.946,1.224-1.157,1.261-1.325,3.082-0.504,4.505l4.407,6.644-2.063,17.405 4.063,10.808c0.396,1.087 1.933,1.087 2.33,0l4.063-10.808-2.063-17.405 4.407-6.644c0.822-1.423 0.654-3.244-0.503-4.505z"/>
   </symbol>

      <symbol  width="50px" height="50px" fill="#fff" id="order" viewBox="0 0 512 512">
    	<path d="M490.667,0H21.333C9.536,0,0,9.557,0,21.333v469.333C0,502.443,9.536,512,21.333,512h469.333
			c11.797,0,21.333-9.557,21.333-21.333V21.333C512,9.557,502.464,0,490.667,0z M128,405.333c0,11.776-9.536,21.333-21.333,21.333
			c-11.797,0-21.333-9.557-21.333-21.333v-42.667c0-11.776,9.536-21.333,21.333-21.333c11.797,0,21.333,9.557,21.333,21.333V405.333
			z M128,277.333c0,11.776-9.536,21.333-21.333,21.333c-11.797,0-21.333-9.557-21.333-21.333v-42.667
			c0-11.776,9.536-21.333,21.333-21.333c11.797,0,21.333,9.557,21.333,21.333V277.333z M128,170.667
			c-11.797,0-21.333-9.557-21.333-21.333v-42.667c0-11.776,9.536-21.333,21.333-21.333c11.797,0,21.333,9.557,21.333,21.333v42.667
			C149.333,161.109,139.797,170.667,128,170.667z M192,405.333c0,11.776-9.536,21.333-21.333,21.333
			c-11.797,0-21.333-9.557-21.333-21.333v-42.667c0-11.776,9.536-21.333,21.333-21.333c11.797,0,21.333,9.557,21.333,21.333V405.333
			z M192,277.333c0,11.776-9.536,21.333-21.333,21.333c-11.797,0-21.333-9.557-21.333-21.333v-42.667
			c0-11.776,9.536-21.333,21.333-21.333c11.797,0,21.333,9.557,21.333,21.333V277.333z M256,405.333
			c0,11.776-9.536,21.333-21.333,21.333c-11.797,0-21.333-9.557-21.333-21.333v-42.667c0-11.776,9.536-21.333,21.333-21.333
			c11.797,0,21.333,9.557,21.333,21.333V405.333z M405.333,405.333H320c-11.797,0-21.333-9.557-21.333-21.333
			s9.536-21.333,21.333-21.333h85.333c11.797,0,21.333,9.557,21.333,21.333S417.131,405.333,405.333,405.333z M405.333,277.333H256
			c-11.797,0-21.333-9.557-21.333-21.333s9.536-21.333,21.333-21.333h149.333c11.797,0,21.333,9.557,21.333,21.333
			S417.131,277.333,405.333,277.333z M405.333,149.333H234.667c-11.797,0-21.333-9.557-21.333-21.333s9.536-21.333,21.333-21.333
			h170.667c11.797,0,21.333,9.557,21.333,21.333S417.131,149.333,405.333,149.333z"/>
   </symbol>

   <symbol  width="50px" height="50px" fill="#fff" id="time" viewBox="0 0 512 512">
    	<circle style="fill:#5347f888;" cx="256" cy="256" r="256"/>
      <path style="fill:#5347f888;" d="M149.52,395.195l116.589,116.589C402.804,506.473,512,393.999,512,256
	      c0-5.073-0.164-10.109-0.455-15.108L369.778,99.125l-2.132,14.245l-35.793-35.793l-13.648,44.678l41.843,41.843l-10.311,68.848
	      L194.37,77.576l-11.088,39.39l154.721,154.721l6.978-6.978l-11.921,79.601L149.52,395.195z"/>
      <path style="fill:#FFC61B;" d="M352.827,398.222H159.175c-9.363,0-16.953-7.59-16.953-16.951V142.222h227.556v239.049
	      C369.778,390.632,362.187,398.222,352.827,398.222z"/>
      <path style="fill:#EAA22F;" d="M255.426,142.222v256h97.401c9.363,0,16.951-7.59,16.951-16.951V142.222H255.426z"/>
      <rect x="142.222" y="99.125" style="fill:#D48B07;" width="227.556" height="68.956"/>
      <rect x="255.431" y="99.125" style="fill:#FF5419;" width="114.347" height="68.956"/>
	   <rect x="175.407" y="77.576" style="fill:#FFFFFF;" width="18.963" height="46.545"/>
	   <rect x="312.889" y="77.576" style="fill:#FFFFFF;" width="18.963" height="46.545"/>
      <rect x="170.667" y="190.492" style="fill:#FFEDBB;" width="170.667" height="17.239"/>
	   <rect x="255.431" y="190.492" style="fill:#FEE187;" width="85.907" height="17.239"/>
	   <rect x="316.957" y="241.347" style="fill:#FEE187;" width="24.376" height="29.306"/>
	   <rect x="268.188" y="241.347" style="fill:#FEE187;" width="24.376" height="29.306"/>
	   <rect x="219.436" y="241.347" style="fill:#FFEDBB;" width="24.376" height="29.306"/>
	   <rect x="170.667" y="241.347" style="fill:#FFEDBB;" width="24.376" height="29.306"/>
	   <rect x="316.957" y="287.892" style="fill:#FEE187;" width="24.376" height="29.306"/>
	   <rect x="268.188" y="287.892" style="fill:#FEE187;" width="24.376" height="29.306"/>
	   <rect x="219.436" y="287.892" style="fill:#FFEDBB;" width="24.376" height="29.306"/>
	   <rect x="170.667" y="287.892" style="fill:#FFEDBB;" width="24.376" height="29.306"/>
	   <rect x="316.957" y="334.438" style="fill:#FEE187;" width="24.376" height="29.306"/>
	   <rect x="268.188" y="334.438" style="fill:#FEE187;" width="24.376" height="29.306"/>
	   <rect x="219.436" y="334.438" style="fill:#FFEDBB;" width="24.376" height="29.306"/>
	   <rect x="170.667" y="334.438" style="fill:#FFEDBB;" width="24.376" height="29.306"/>
   </symbol>

   <symbol  width="50px" height="50px" fill="#fff" id="square" viewBox="0 0 512 512">
    	<circle style="fill:#5347f888;" cx="256" cy="256" r="256"/>
	   <path style="fill:#5347f888;" d="M373.513,407.704h-44.618L132.167,213.764l-22.218,189.418L215.58,508.813
		   C228.747,510.902,242.245,512,256,512c61.986,0,118.824-22.033,163.118-58.692L373.513,407.704z"/>
	   <path style="fill:#5347f888;" d="M512,256c0-13.76-1.1-27.264-3.189-40.436L402.768,109.521l-174.925,31.351l179.572,232.353
		   l45.89,45.89C489.967,374.824,512,317.986,512,256z"/>
      <path style="fill:#FFA500;" d="M138.487,104.296l268.929,268.929V121.104c0-9.283-7.525-16.808-16.808-16.808H138.487z
	      M365.468,260.856L253.414,151.157h112.054V260.856z"/>
      <path style="fill:#FFA500;" d="M407.416,121.104c0-4.496-1.776-8.568-4.649-11.585l-41.638,41.637h4.339v109.699l-57.623-56.413
	      l-34.606,34.606l134.177,134.177V121.104L407.416,121.104z"/>
	   <rect x="350.815" y="104.296" style="fill:#FFFFFF;" width="5.172" height="28.444"/>
	   <rect x="322.37" y="104.296" style="fill:#FFFFFF;" width="5.172" height="17.239"/>
	   <rect x="293.926" y="104.296" style="fill:#FFFFFF;" width="5.172" height="28.444"/>
	   <rect x="265.481" y="104.296" style="fill:#FFFFFF;" width="5.172" height="17.239"/>
	   <rect x="237.037" y="104.296" style="fill:#FFFFFF;" width="5.172" height="28.444"/>
      <path style="fill:#FFA500;" d="M373.513,407.704L104.584,138.774v252.121c0,9.283,7.525,16.808,16.808,16.808H373.513z
	      M146.532,251.144l112.054,109.699H146.532V251.144z"/>
      <path style="fill:#FFA500;" d="M204.447,307.841l54.139,53.001H151.445l-41.937,41.937c3.041,3.041,7.244,4.922,11.885,4.922
	      h252.121L239.049,273.237L204.447,307.841z"/>
	   <rect x="156.013" y="379.259" style="fill:#FFFFFF;" width="5.172" height="28.444"/>
	   <rect x="184.458" y="390.465" style="fill:#FFFFFF;" width="5.172" height="17.239"/>
	   <rect x="212.902" y="379.259" style="fill:#FFFFFF;" width="5.172" height="28.444"/>
	   <rect x="241.347" y="390.465" style="fill:#FFFFFF;" width="5.172" height="17.239"/>
	   <rect x="269.791" y="379.259" style="fill:#FFFFFF;" width="5.172" height="28.444"/>
   </symbol>

</svg>