<?xml version="1.0" standalone="no"?>
<!DOCTYPE svg PUBLIC "-//W3C//DTD SVG 20010904//EN"
 "http://www.w3.org/TR/2001/REC-SVG-20010904/DTD/svg10.dtd">
<svg version="1.0" xmlns="http://www.w3.org/2000/svg"
 width="146.000000pt" height="146.000000pt" viewBox="0 0 146.000000 146.000000"
 preserveAspectRatio="xMidYMid meet">
<metadata>
Created by potrace 1.14, written by Peter Selinger 2001-2017
</metadata>
<g transform="translate(0.000000,146.000000) scale(0.100000,-0.100000)"
fill="#000000" stroke="none">
<path d="M609 1378 c15 -20 10 -22 -37 -20 -14 1 -20 -3 -16 -10 4 -6 3 -8 -4
-4 -6 3 -14 1 -18 -5 -5 -9 -11 -7 -21 6 -7 11 -13 13 -13 6 0 -7 -4 -10 -9
-7 -5 3 -15 -2 -22 -12 -13 -15 -12 -16 4 -3 9 7 17 9 17 4 0 -13 -41 -31 -63
-27 -16 2 -16 0 -5 -14 11 -14 9 -14 -15 1 -28 18 -28 18 -17 -3 7 -13 8 -20
2 -16 -6 3 -14 1 -17 -5 -4 -5 -14 -8 -22 -5 -11 4 -13 2 -9 -9 3 -9 0 -15
-10 -15 -9 0 -12 -5 -8 -12 5 -9 2 -9 -9 1 -15 12 -17 11 -17 -3 0 -9 -5 -16
-11 -16 -5 0 -7 5 -3 12 4 7 3 8 -5 4 -9 -6 -9 -11 1 -24 12 -13 10 -14 -9 -4
-20 11 -21 10 -18 -21 3 -23 2 -28 -5 -17 -6 10 -10 11 -10 3 0 -7 -5 -13 -11
-13 -5 0 -7 5 -3 12 4 7 3 8 -5 4 -9 -6 -9 -11 1 -24 10 -12 10 -14 0 -8 -7 4
-12 2 -12 -4 0 -6 -4 -8 -10 -5 -5 3 -10 2 -10 -4 0 -5 6 -12 13 -14 8 -4 7
-6 -3 -7 -8 0 -24 -8 -35 -17 -16 -13 -17 -15 -2 -10 17 6 23 -4 9 -17 -4 -4
-7 -13 -7 -19 0 -7 -8 -11 -18 -11 -12 1 -15 -2 -9 -10 15 -20 8 -51 -15 -61
-24 -10 -28 -46 -3 -38 11 4 12 3 2 -4 -11 -8 -17 -29 -21 -75 -1 -4 -9 -5
-19 -1 -11 4 -9 -1 8 -16 14 -12 19 -20 13 -16 -16 8 -17 -27 -2 -42 8 -8 8
-13 0 -17 -16 -10 -14 -49 2 -40 7 4 9 3 4 -2 -5 -5 -13 -9 -18 -9 -5 0 -9 -4
-8 -10 1 -5 5 -9 10 -8 5 2 9 -4 9 -13 0 -9 -5 -12 -12 -8 -7 5 -8 3 -3 -6 4
-7 2 -16 -5 -20 -9 -6 -6 -10 9 -15 17 -5 21 -13 19 -33 -2 -15 -7 -31 -13
-35 -6 -5 -4 -7 5 -4 8 2 14 11 12 18 -2 8 0 10 5 6 4 -5 8 -12 8 -15 1 -4 9
-23 18 -42 14 -26 14 -30 2 -16 -8 11 -15 23 -15 28 0 4 -7 8 -15 8 -12 0 -11
-4 5 -20 11 -11 21 -25 21 -30 2 -11 5 -25 9 -37 1 -5 2 -12 1 -16 -1 -5 3 -6
9 -2 8 5 7 11 -1 21 -8 10 -8 14 0 14 10 0 15 -13 12 -32 0 -5 4 -8 10 -8 5 0
8 -4 5 -9 -8 -12 49 -72 60 -63 4 4 3 0 -4 -9 -10 -14 -8 -18 18 -29 32 -13
42 -33 13 -24 -15 5 -15 4 -3 -4 10 -8 18 -8 27 0 10 8 13 6 13 -7 0 -11 5
-15 15 -11 13 5 14 2 4 -17 -11 -20 -11 -21 4 -8 12 9 17 10 17 2 0 -7 4 -10
9 -6 5 3 16 -4 24 -15 7 -11 17 -17 20 -13 4 3 7 1 7 -5 0 -7 7 -12 15 -12 8
0 15 -8 16 -17 0 -15 2 -15 9 2 5 11 9 14 9 8 1 -14 81 -58 81 -46 0 5 5 1 10
-7 8 -12 10 -12 10 5 0 15 2 17 9 6 6 -8 20 -12 39 -9 17 2 29 1 27 -3 -7 -11
26 -20 39 -11 18 14 81 9 78 -6 -1 -8 2 -11 8 -7 6 3 8 11 5 16 -4 5 1 9 10 9
9 0 13 -5 9 -11 -3 -6 6 -3 22 7 15 11 25 14 21 8 -4 -7 0 -15 9 -18 8 -3 13
-2 10 2 -3 4 4 13 14 20 16 10 21 9 30 -6 10 -15 11 -14 7 6 -3 12 -2 20 3 17
4 -3 13 2 20 10 12 14 15 14 30 0 15 -14 18 -13 35 5 10 11 22 17 26 14 5 -3
6 3 2 13 -3 10 -3 15 2 11 4 -4 14 -3 22 4 11 9 12 7 7 -8 -5 -18 -5 -18 6 -1
6 9 8 23 4 30 -5 9 -4 9 7 -1 13 -12 38 -18 26 -6 -12 12 13 43 29 37 8 -3 14
-2 13 3 -4 21 2 28 11 14 8 -13 10 -12 10 3 0 22 35 69 44 60 3 -3 6 -1 6 6 0
7 5 9 12 5 8 -5 9 -2 4 11 -6 16 -4 16 10 4 16 -13 16 -12 6 8 -10 19 -9 24
10 37 12 9 19 16 15 16 -4 0 -1 13 8 30 11 21 20 28 33 24 10 -4 13 -2 7 3 -6
4 -10 14 -9 21 1 6 2 19 3 27 0 8 6 15 12 15 5 0 7 -5 3 -12 -4 -7 -3 -8 5 -4
6 4 9 12 5 17 -3 5 0 18 7 27 10 12 7 11 -11 -3 -18 -14 -21 -15 -11 -3 7 9
10 22 7 27 -4 5 -2 12 4 16 5 3 10 15 10 26 0 14 4 18 13 13 9 -6 9 -4 -1 8
-9 11 -10 18 -2 23 5 3 10 11 10 16 0 6 -6 7 -12 3 -9 -5 -9 -2 1 9 7 10 9 17
3 17 -11 0 -11 18 1 38 5 6 4 12 0 12 -5 0 -9 9 -9 19 0 11 4 17 8 15 15 -10
8 9 -9 23 -17 14 -17 14 0 9 11 -3 16 -2 12 4 -3 6 -14 10 -23 11 -12 0 -11 3
6 9 12 5 22 12 22 15 0 4 -4 4 -9 1 -5 -3 -11 3 -14 14 -3 10 0 21 7 24 6 2 4
5 -6 5 -9 1 -18 -5 -21 -11 -2 -7 -3 9 -2 35 1 33 -2 50 -11 54 -8 3 -11 9 -8
14 3 5 0 9 -7 9 -7 0 -9 8 -6 21 5 17 3 18 -9 8 -12 -10 -15 -10 -12 2 2 8 -3
13 -10 11 -8 -1 -11 2 -8 7 4 5 0 16 -8 24 -8 8 -12 17 -9 21 4 3 0 6 -7 6 -7
0 -11 3 -7 6 3 4 -1 13 -9 22 -14 13 -17 13 -26 1 -8 -12 -9 -12 -5 1 6 22
-12 52 -28 46 -10 -3 -12 0 -8 11 4 11 2 14 -5 9 -7 -4 -12 -2 -12 4 0 7 -7 9
-17 6 -10 -4 -14 -4 -11 0 4 3 0 13 -8 21 -8 8 -12 18 -10 22 3 4 -1 8 -9 8
-8 0 -12 -5 -8 -10 3 -5 -6 -1 -20 8 -15 9 -31 14 -37 10 -5 -3 -10 -4 -10 0
0 3 10 10 23 16 20 8 19 9 -6 4 -21 -4 -27 -2 -21 6 4 7 3 9 -4 5 -6 -3 -13
-3 -16 2 -3 5 -19 7 -35 6 -20 -1 -29 2 -24 9 4 7 0 8 -12 3 -16 -6 -16 -4 -4
10 13 16 12 16 -7 6 -27 -14 -62 -12 -68 5 -3 7 -12 10 -22 6 -13 -5 -15 -3
-9 7 5 9 4 11 -4 6 -9 -6 -9 -11 1 -24 11 -13 10 -14 -7 -5 -11 6 -36 10 -56
10 -19 0 -40 3 -47 6 -6 4 -14 2 -17 -3 -5 -8 -14 -5 -28 7 -19 16 -20 16 -8
1z m688 -384 c-3 -3 -12 -4 -19 -1 -8 3 -5 6 6 6 11 1 17 -2 13 -5z m-317
-819 c-7 -9 -15 -13 -17 -11 -7 7 7 26 19 26 6 0 6 -6 -2 -15z m-443 -18 c7 0
10 -4 7 -9 -3 -4 -15 -3 -27 3 -30 16 -37 24 -12 14 11 -4 25 -8 32 -8z m128
-27 c3 -5 1 -10 -4 -10 -6 0 -11 5 -11 10 0 6 2 10 4 10 3 0 8 -4 11 -10z"/>
<path d="M826 1381 c-3 -5 1 -11 9 -14 9 -4 12 -1 8 9 -6 16 -10 17 -17 5z"/>
<path d="M910 1349 c0 -5 5 -7 10 -4 6 3 10 8 10 11 0 2 -4 4 -10 4 -5 0 -10
-5 -10 -11z"/>
<path d="M435 1320 c3 -5 8 -10 11 -10 2 0 4 5 4 10 0 6 -5 10 -11 10 -5 0 -7
-4 -4 -10z"/>
<path d="M1250 1100 c-9 -6 -10 -10 -3 -10 6 0 15 5 18 10 8 12 4 12 -15 0z"/>
<path d="M140 1051 c0 -6 4 -13 10 -16 6 -3 7 1 4 9 -7 18 -14 21 -14 7z"/>
<path d="M120 974 c0 -8 5 -12 10 -9 6 3 10 10 10 16 0 5 -4 9 -10 9 -5 0 -10
-7 -10 -16z"/>
<path d="M81 886 c-9 -10 -7 -17 6 -27 16 -12 17 -12 6 2 -10 12 -10 18 -1 27
7 7 9 12 6 12 -3 0 -11 -6 -17 -14z"/>
<path d="M79 767 c6 -8 7 -18 3 -22 -4 -5 -1 -5 6 -1 10 6 10 11 1 22 -6 8
-14 14 -16 14 -3 0 0 -6 6 -13z"/>
<path d="M1346 748 c3 -5 10 -6 15 -3 13 9 11 12 -6 12 -8 0 -12 -4 -9 -9z"/>
<path d="M1330 615 c-11 -13 -10 -14 4 -9 9 3 16 10 16 15 0 13 -6 11 -20 -6z"/>
<path d="M1276 455 c-9 -26 -7 -32 5 -12 6 10 9 21 6 23 -2 3 -7 -2 -11 -11z"/>
<path d="M1235 401 c-3 -5 -2 -12 3 -15 5 -3 9 1 9 9 0 17 -3 19 -12 6z"/>
<path d="M1170 315 c-11 -13 -10 -14 4 -9 9 3 16 10 16 15 0 13 -6 11 -20 -6z"/>
<path d="M356 222 c-3 -5 1 -9 9 -9 8 0 12 4 9 9 -3 4 -7 8 -9 8 -2 0 -6 -4
-9 -8z"/>
<path d="M920 155 c-11 -13 -10 -14 4 -9 9 3 16 10 16 15 0 13 -6 11 -20 -6z"/>
<path d="M713 105 c0 -8 4 -12 9 -9 5 3 6 10 3 15 -9 13 -12 11 -12 -6z"/>
</g>
</svg>
